HIERARCHY
ROOT Hips
{
	OFFSET -14.64140 90.27770 -84.91600
	CHANNELS 6 Xposition Yposition Zposition Zrotation Xrotation Yrotation
	JOINT Spine
	{
		OFFSET 0.00000 13.20850 -1.60436
		CHANNELS 3 Zrotation Xrotation Yrotation
		JOINT Spine1
		{
			OFFSET 0.00000 8.61716 0.00000
			CHANNELS 3 Zrotation Xrotation Yrotation
			JOINT Spine2
			{
				OFFSET 0.00000 8.61717 0.00000
				CHANNELS 3 Zrotation Xrotation Yrotation
				JOINT Spine3
				{
					OFFSET 0.00000 8.61717 0.00000
					CHANNELS 3 Zrotation Xrotation Yrotation
					JOINT Neck
					{
						OFFSET 0.00000 11.07920 1.10792
						CHANNELS 3 Zrotation Xrotation Yrotation
						JOINT Neck1
						{
							OFFSET 0.00000 7.08032 0.00000
							CHANNELS 3 Zrotation Xrotation Yrotation
							JOINT Head
							{
								OFFSET 0.00000 7.08031 0.00000
								CHANNELS 3 Zrotation Xrotation Yrotation
								End site
								{
									OFFSET 0.00000 0.00000 0.00000
								}
							}
						}
					}
					JOINT RightShoulder
					{
						OFFSET -0.01000 7.91373 5.19711
						CHANNELS 3 Zrotation Xrotation Yrotation
						JOINT RightArm
						{
							OFFSET -18.41580 0.00000 0.00000
							CHANNELS 3 Zrotation Xrotation Yrotation
							JOINT RightForeArm
							{
								OFFSET -29.11090 0.00000 0.00000
								CHANNELS 3 Zrotation Xrotation Yrotation
								JOINT RightHand
								{
									OFFSET -24.65040 0.00000 0.00000
									CHANNELS 3 Zrotation Xrotation Yrotation
									JOINT RightHandThumb1
									{
										OFFSET -5.35114 -0.85590 3.97906
										CHANNELS 3 Zrotation Xrotation Yrotation
										JOINT RightHandThumb2
										{
											OFFSET -4.52789 0.00000 0.00000
											CHANNELS 3 Zrotation Xrotation Yrotation
											JOINT RightHandThumb3
											{
												OFFSET -2.46976 0.00000 0.00000
												CHANNELS 3 Zrotation Xrotation Yrotation
												End site
												{
													OFFSET 0.00000 0.00000 0.00000
												}
											}
										}
									}
									JOINT RightHandIndex1
									{
										OFFSET -14.26970 0.00000 2.88139
										CHANNELS 3 Zrotation Xrotation Yrotation
										JOINT RightHandIndex2
										{
											OFFSET -5.48836 0.00000 0.00000
											CHANNELS 3 Zrotation Xrotation Yrotation
											JOINT RightHandIndex3
											{
												OFFSET -3.01859 0.00000 0.00000
												CHANNELS 3 Zrotation Xrotation Yrotation
												End site
												{
													OFFSET 0.00000 0.00000 0.00000
												}
											}
										}
									}
									JOINT RightHandMiddle1
									{
										OFFSET -14.26970 0.00000 -0.09147
										CHANNELS 3 Zrotation Xrotation Yrotation
										JOINT RightHandMiddle2
										{
											OFFSET -6.17441 0.00000 0.00000
											CHANNELS 3 Zrotation Xrotation Yrotation
											JOINT RightHandMiddle3
											{
												OFFSET -3.56743 0.00000 0.00000
												CHANNELS 3 Zrotation Xrotation Yrotation
												End site
												{
													OFFSET 0.00000 0.00000 0.00000
												}
											}
										}
									}
									JOINT RightHandRing1
									{
										OFFSET -12.69180 0.00000 -3.06433
										CHANNELS 3 Zrotation Xrotation Yrotation
										JOINT RightHandRing2
										{
											OFFSET -5.62556 0.00000 0.00000
											CHANNELS 3 Zrotation Xrotation Yrotation
											JOINT RightHandRing3
											{
												OFFSET -3.56744 0.00000 0.00000
												CHANNELS 3 Zrotation Xrotation Yrotation
												End site
												{
													OFFSET 0.00000 0.00000 0.00000
												}
											}
										}
									}
									JOINT RightHandPinky1
									{
										OFFSET -11.11390 0.00000 -6.03719
										CHANNELS 3 Zrotation Xrotation Yrotation
										JOINT RightHandPinky2
										{
											OFFSET -4.52789 0.00000 0.00000
											CHANNELS 3 Zrotation Xrotation Yrotation
											JOINT RightHandPinky3
											{
												OFFSET -2.46976 0.00000 0.00000
												CHANNELS 3 Zrotation Xrotation Yrotation
												End site
												{
													OFFSET 0.00000 0.00000 0.00000
												}
											}
										}
									}
								}
							}
						}
					}
					JOINT LeftShoulder
					{
						OFFSET 0.01000 7.91373 5.19711
						CHANNELS 3 Zrotation Xrotation Yrotation
						JOINT LeftArm
						{
							OFFSET 18.41580 0.00000 0.00000
							CHANNELS 3 Zrotation Xrotation Yrotation
							JOINT LeftForeArm
							{
								OFFSET 29.11090 0.00000 0.00000
								CHANNELS 3 Zrotation Xrotation Yrotation
								JOINT LeftHand
								{
									OFFSET 24.65040 0.00000 0.00000
									CHANNELS 3 Zrotation Xrotation Yrotation
									JOINT LeftHandThumb1
									{
										OFFSET 5.35114 -0.85590 3.97906
										CHANNELS 3 Zrotation Xrotation Yrotation
										JOINT LeftHandThumb2
										{
											OFFSET 4.52789 0.00000 0.00000
											CHANNELS 3 Zrotation Xrotation Yrotation
											JOINT LeftHandThumb3
											{
												OFFSET 2.46977 0.00000 0.00000
												CHANNELS 3 Zrotation Xrotation Yrotation
												End site
												{
													OFFSET 0.00000 0.00000 0.00000
												}
											}
										}
									}
									JOINT LeftHandIndex1
									{
										OFFSET 14.26970 0.00000 2.88139
										CHANNELS 3 Zrotation Xrotation Yrotation
										JOINT LeftHandIndex2
										{
											OFFSET 5.48836 0.00000 0.00000
											CHANNELS 3 Zrotation Xrotation Yrotation
											JOINT LeftHandIndex3
											{
												OFFSET 3.01859 0.00000 0.00000
												CHANNELS 3 Zrotation Xrotation Yrotation
												End site
												{
													OFFSET 0.00000 0.00000 0.00000
												}
											}
										}
									}
									JOINT LeftHandMiddle1
									{
										OFFSET 14.26970 0.00000 -0.09147
										CHANNELS 3 Zrotation Xrotation Yrotation
										JOINT LeftHandMiddle2
										{
											OFFSET 6.17440 0.00000 0.00000
											CHANNELS 3 Zrotation Xrotation Yrotation
											JOINT LeftHandMiddle3
											{
												OFFSET 3.56744 0.00000 0.00000
												CHANNELS 3 Zrotation Xrotation Yrotation
												End site
												{
													OFFSET 0.00000 0.00000 0.00000
												}
											}
										}
									}
									JOINT LeftHandRing1
									{
										OFFSET 12.69180 0.00000 -3.06433
										CHANNELS 3 Zrotation Xrotation Yrotation
										JOINT LeftHandRing2
										{
											OFFSET 5.62556 0.00000 0.00000
											CHANNELS 3 Zrotation Xrotation Yrotation
											JOINT LeftHandRing3
											{
												OFFSET 3.56744 0.00000 0.00000
												CHANNELS 3 Zrotation Xrotation Yrotation
												End site
												{
													OFFSET 0.00000 0.00000 0.00000
												}
											}
										}
									}
									JOINT LeftHandPinky1
									{
										OFFSET 11.11390 0.00000 -6.03719
										CHANNELS 3 Zrotation Xrotation Yrotation
										JOINT LeftHandPinky2
										{
											OFFSET 4.52789 0.00000 0.00000
											CHANNELS 3 Zrotation Xrotation Yrotation
											JOINT LeftHandPinky3
											{
												OFFSET 2.46976 0.00000 0.00000
												CHANNELS 3 Zrotation Xrotation Yrotation
												End site
												{
													OFFSET 0.00000 0.00000 0.00000
												}
											}
										}
									}
								}
							}
						}
					}
					JOINT pCube4
					{
						OFFSET 0.00000 10.91090 1.10792
						CHANNELS 3 Zrotation Xrotation Yrotation
						End site
						{
							OFFSET 0.00000 0.00000 0.00000
						}
					}
				}
			}
		}
	}
	JOINT RightUpLeg
	{
		OFFSET -9.98441 0.00000 0.00000
		CHANNELS 3 Zrotation Xrotation Yrotation
		JOINT RightLeg
		{
			OFFSET 0.00000 -42.11790 0.00000
			CHANNELS 3 Zrotation Xrotation Yrotation
			JOINT RightFoot
			{
				OFFSET 0.00000 -45.00020 -0.00001
				CHANNELS 3 Zrotation Xrotation Yrotation
				JOINT RightForeFoot
				{
					OFFSET 0.00000 -3.74820 0.00000
					CHANNELS 3 Zrotation Xrotation Yrotation
					JOINT RightToeBase
					{
						OFFSET 0.00000 0.06325 14.43120
						CHANNELS 3 Zrotation Xrotation Yrotation
						End site
						{
							OFFSET 0.00000 0.00000 0.00000
						}
					}
				}
			}
		}
	}
	JOINT LeftUpLeg
	{
		OFFSET 9.98441 0.00000 0.00000
		CHANNELS 3 Zrotation Xrotation Yrotation
		JOINT LeftLeg
		{
			OFFSET 0.00000 -42.11800 0.00000
			CHANNELS 3 Zrotation Xrotation Yrotation
			JOINT LeftFoot
			{
				OFFSET 0.00000 -45.00070 0.00000
				CHANNELS 3 Zrotation Xrotation Yrotation
				JOINT LeftForeFoot
				{
					OFFSET 0.00000 -3.74824 0.00000
					CHANNELS 3 Zrotation Xrotation Yrotation
					JOINT LeftToeBase
					{
						OFFSET 0.00000 0.06325 14.43110
						CHANNELS 3 Zrotation Xrotation Yrotation
						End site
						{
							OFFSET 0.00000 0.00000 0.00000
						}
					}
				}
			}
		}
	}
}
MOTION
Frames: 4
Frame Time: 0.050000
0.018904165094331862 -0.02076985974800115 0.011096664329060922 0.010202457561880405 0.012439464636274121 0.024850292977987118 -3.321139747258514 1.0093269467429522 -0.7913037228937981 -1.0015987591383826 3.5608770769567673 0.3525129189733821 -1.0968590884321168 -1.7932737755214112 -3.5548542491900013 0.4647629960902446 0.5025190386639737 -1.18370633820016 -0.6861304281420156 11.574767270391394 0.5466205003385538 -0.24646036584189837 -1.0765231978842975 1.1717913939459896 -0.31221196590471667 -16.762254193433964 0.1156776891522747 -4.236448026687199 1.5644520596366045 -12.977522050817864 70.9147093532923 20.227326846392742 10.087089892769448 17.02995525244268 3.841703389634254 73.21099164875592 16.182780651731324 -0.3741590804012608 -3.567865317790459 4.5263672139554085 -0.09003952130378454 -1.6163921596350679 -0.025037408201017027 -0.04749492688286403 -56.18496040190107 -0.04177065437018495 -0.041263352276973 -56.24874103229411 -38.77874249557964 -0.036275547546683974 0.02576475867161179 0.04867513167343622 -0.04999221157806892 -0.049449523597102446 -0.0006897018733556081 -0.012877232260294537 -0.007129715967041434 -36.66853451207104 0.025081829610080226 0.03661999461489007 0.029349709321954125 -0.04129183299286847 -0.016513625476800194 -0.03717685217501142 0.04416775086562172 0.007621456405026008 -19.74014149299711 0.041852973345776666 0.002754158776284855 0.031690126768021666 -0.01649948745673146 0.0019419502603260687 -0.03167741966174468 -0.04250191202998728 -0.033343120405606476 24.04275908123328 0.031339630741359446 -0.04216405867413483 28.841469943480014 -0.015170051905080787 0.01399915786031347 28.84830472862455 -0.03688614097780715 0.031041893181907636 8.514510013938848 1.909118521692674 10.010440009091031 -64.0211060061786 21.296564154519558 -28.99840122597568 -44.9298588639025 0.3962546250346124 -74.7960412636505 -11.726612040718733 -4.256282509263789 3.468868822355184 -0.46815245499995084 0.08584615399436452 -8.128412395740359 0.006162778158398491 0.03237476579882507 44.60790025996286 -0.020990705805194975 0.006652041850143411 44.611933729896165 12.446291641247694 0.021396848302209937 -0.0077714270477673665 -0.01688221579624078 0.011009620501089596 0.0024526621522987153 -0.0326642082343298 0.049360994813281794 -0.025596555870362702 11.098297172992078 -0.008047631087261174 0.033049997896253694 -0.00972743793832982 -0.012412474159188842 0.044762808272998486 0.017030631024249312 0.02119221920373535 0.04514247717192511 4.774955636180667 -0.013357417700329612 0.001267663445227068 -0.005921082559728197 -0.007612799488999523 0.01056409026593448 0.010428622976537925 0.0039249873577070675 -0.03699576955946324 -5.595170948336405 0.008144814021408922 0.002472557794550952 -6.671799065141636 0.049098178827219556 0.0011733530383294284 -6.761693871042575 -0.012978546488083985 -0.00437906559267233 -0.044931418313045465 0.028027590156539457 -0.03223655278195863 8.05918287032823 3.4885236395936063 -19.195801002919485 0.037712606657002976 10.388537047948798 0.009035294846708435 -5.643264203969871 -15.663658377385453 3.164642945748933 0.04265435763578552 -0.04472754901720991 -0.01324254408370089 -0.02087773200267696 4.743748351752056 -0.02958048019208211 12.476841346821635 -8.260088082718054 6.906971883933514 0.008827837967706092 46.331479426864696 -0.047521220740342984 -4.340197149453236 -14.764652711114344 -3.8411811967123355 0.03846999675227648 -0.041999952375510144 0.006918839340338943 0.029713437042723573 -10.745114860758717 -0.008440953118078378 
-0.0008018787593579328 0.027658246299171126 -0.023367014494474623 0.00030233022144115444 -0.017207501954272713 0.03545650380142758 -3.3307641256996803 0.9004594059897352 -0.7704250529343463 -0.9388665588528917 3.532125630915623 0.2927100003465705 -1.0700479233819176 -1.8172869338524031 -3.6537950599682105 0.44052038206113564 0.4804593481322874 -1.1711077776422842 -0.6949957932009845 11.585986068986182 0.5976020713315486 -0.1902504758184139 -1.069082151363706 1.2644171876698629 -0.34321104354247356 -16.78762422936689 0.09845856840620465 -4.120591467204992 1.5325066125739542 -12.866759942923803 71.02764506024907 20.24512395603025 10.297020238500897 19.79537630435617 3.783426124077455 73.92360219921372 16.163868346830444 -0.4024779086029334 -3.6699258143438356 4.533442406108088 -0.16506926564811714 -1.5713377473427246 0.01212213228374634 -0.024274146204728633 -56.22150199001237 -0.01897901048561251 -0.03760497983835379 -56.217862625461905 -38.79101280501302 -0.017425334537248798 0.048148003924349876 -0.03674396439875835 -0.03827589602089158 -0.009569875325978812 -0.002909178543370099 0.024442412032731297 0.03793030066214217 -36.701215624946286 -0.00237027129217006 -0.0338516111615612 -0.004485406307741425 -0.0029298122010675623 0.035609353005428855 -0.0032271339943570746 -0.002617240426691015 -0.03266843280444008 -19.720520068421784 0.027564177258677266 0.04595040107275937 0.016956078744517742 -0.005219125515252551 -0.023887364778876558 0.027607073338701795 0.0232578366211708 -0.019193117065906786 24.099960012340674 0.049930365393090016 0.001639819391019766 28.891213545558276 -0.01210935017412108 -0.021981340917773994 28.860107174382804 0.008241932420399408 -0.048545132055994936 8.522016012710615 1.8804012693415277 9.997393190106067 -63.92874111039282 21.077982745008025 -29.518094107919328 -48.58518418976939 1.6345261907715705 -76.55183341721047 -12.06987122473862 -4.270933130222553 3.5786795095904913 -0.4964028836343514 0.06803867061009758 -8.147988555964742 0.012057987188434703 0.028047009673336256 44.52472877273362 -0.0153915891064953 0.004038556139918487 44.53972283459707 12.458109285809359 0.008955954548533162 -0.025408457250834567 0.03126547501537947 -0.019567778722975014 -0.01192827190416238 -0.014914339228732915 0.00447989885374081 -0.04267033953822481 11.093276288430296 -0.0024034967857382876 -0.046694707029351995 0.04162576646781081 -0.0341651843021041 -0.024646978794254745 -0.0008833111179577587 0.007222879203283824 -0.006725141018858531 4.746390169499705 -0.03573036861505115 0.03498163544515818 0.001855907952842444 0.045107343623115255 -0.014983297148350318 -0.03092913811316794 0.026400530255102004 0.030556756310380483 -5.617678734954022 0.03563066901252349 -0.019191949422278365 -6.720130272472647 -0.01646550648053182 -0.01925037313930646 -6.741255555384108 0.04521136126961432 0.011711741222864001 -0.0009541369288503643 0.03699796636725353 0.02889890300807853 8.00357328740257 3.4783218672754788 -19.182999832773643 -0.002768154775283779 10.371071194198922 0.007438952930205938 -5.628177114693451 -15.68548808395925 3.1515694708616504 -0.02493164140096641 0.013203712576643224 0.01030553152099299 0.017345448460611593 4.705863209490089 -0.023257764634874722 12.478201678013997 -8.23509411497181 6.880714358561262 0.03304065704527674 46.37376391075867 0.028643559728402584 -4.314964654819066 -14.771553908917806 -3.828868678639339 -0.006016687819189845 0.009247706527748884 -0.010073289072710039 0.014898928413105953 -10.726838092449963 -0.016972813569131308 
0.032978419536905876 -0.009816144102827142 -0.02147492311747223 -0.041177097711980776 0.043086704785082364 0.027366000585363294 -3.357007413231856 0.9057058407754567 -0.7769990095404085 -0.9994583684142238 3.5668063728363975 0.3498584468550525 -1.1128802010783982 -1.8335023994245558 -3.577656961775456 0.44911156675293856 0.4669142970939495 -1.1770375138242744 -0.7124673005553577 11.553435928699285 0.6589120710320271 -0.1883569883105283 -1.0244269946924558 1.2985967237506626 -0.3514775756033432 -16.72795509621467 0.1374420069031987 -4.188630926707894 1.567524793882661 -12.888181604026975 71.1570502805338 19.810253931814504 10.50384878266062 20.802593241953126 3.4027319126338655 73.34023889187979 16.394182885412036 -0.3567677417878494 -3.815591053044086 4.563643649835637 -0.16896399075132582 -1.5876168156530481 -0.014101010347100726 0.038837134970514414 -56.209313018158944 0.011995707171131152 0.04319894608065482 -56.23136722432657 -38.81112568125005 0.01875132685593093 0.006893458465498277 0.04716356185070342 0.036695873569688855 -0.043768436419722084 0.03252333023086532 -0.015039986218350346 -0.04173178353120328 -36.67290684081607 0.017443695405680495 0.0069869219692381915 0.03433096797116082 0.006625670016125511 0.0336026548067885 -0.003187575936624034 0.036791107717843254 0.03031965391407654 -19.783661479303028 -0.026302549655917436 -0.021720513142031526 0.014127754391885274 -0.0014051253167639151 0.01702644667116402 0.04452212121346054 -8.423631067594257e-05 0.039844298442898766 24.041285263141685 -0.03454580358736957 -0.025692683020155656 28.845540291895006 0.038438223807116596 -0.016777573148577217 28.85622836436688 0.025916886892823933 -0.03774573702727707 8.481042966270225 1.8407897579787633 9.962690861695119 -63.945811817580406 21.091846810214445 -29.460480565820063 -50.91325919990975 1.756362131266051 -77.55433896356588 -12.290518122827622 -4.571570039704205 3.76966006952404 -0.5205721070492935 0.02955593154515225 -8.130985766659856 0.009820111516748704 0.005345918096326922 44.59387908237405 0.0019426053788182606 -0.03272722042534597 44.57435920632549 12.50841759833152 0.013017037246079504 0.03415808644339057 -0.02258864248310713 0.011079298852142537 0.002483535702713253 0.022984740073424176 0.02425986288066467 0.01059278029930698 11.133052129226362 0.026295816800048027 -0.003906512154696245 0.014672661643156115 -0.0465295570073873 -0.02431795743074941 -0.0011503998798132581 0.03268559579486432 -0.016925366179245078 4.804032769615412 -0.02480117167412896 -0.00513238684051102 -0.004442337183187587 -0.016186503922720676 0.007955725238125919 0.019875573933086886 -0.02965420894573869 0.044502872307195664 -5.591482075128672 0.0032942381773544056 0.02856406554149257 -6.72966606086539 0.012197415040952668 0.02743792804339072 -6.727420900439302 0.03410499228125709 0.004252194300290314 -0.03302679244217673 0.03262138071144013 0.01764340910988908 8.071297196454099 3.5255381837511157 -19.23252633077025 -0.033733876155107236 10.357601804046057 0.01976624084914438 -5.624847929935018 -15.675292973173379 3.169789824198984 0.01102554383799772 -0.04071142330734836 0.03237984097232709 -0.013326059726738261 4.65185332710877 -0.006457117673151249 12.471548093885124 -8.270304158720998 6.913201699010932 0.016122561223462523 46.398495073973486 -0.03337351186165674 -4.3615566708397715 -14.737193399088326 -3.786469707574979 0.03630022536598391 0.029254355759371267 0.03823063983020686 0.04717073058167923 -10.764306512214947 0.0028988597418955217 
-0.003905990519820031 0.013819957440474838 0.01586769563231413 -0.038088552048053205 -0.043039837037165435 -0.002132932574827682 -3.371633323173066 0.8982849494689654 -0.778667677260761 -0.9604545243720423 3.499891712747698 0.3189365907758779 -1.1528522435484008 -1.7835951661669271 -3.603846787548267 0.4481579619751281 0.446909819529511 -1.1404135926523122 -0.686360489788688 11.508759787809621 0.5875295005751967 -0.14574427752631547 -0.9974100117647647 1.1929181932544033 -0.2903128051270366 -16.705742888874983 0.10846950272854383 -4.2323595165852135 1.591098007740534 -12.89634179856731 71.25961685952194 19.148752881199535 10.592837592454014 21.530402486296747 2.747047733904233 72.16886165487644 16.716653841151274 -0.3590642356818369 -3.97464401403852 4.49463824975615 -0.10610719336464049 -1.6018725010990926 0.02910897561688793 -0.006006676790680267 -56.24649837233954 -0.048665958095284685 0.0070458518826873205 -56.257215669213124 -38.74193248287999 0.002002871558620628 0.025064904443324 0.02408526413428455 -0.005383392117763412 0.008979651152768595 -0.029959186895575383 -0.03655959555800541 0.019398793799837666 -36.71019212038109 -0.03730467091946212 0.049824779554475264 0.007098624147388835 -0.0006177708985567393 -0.028759299637488064 0.03678787910944792 -0.0012993987587614014 0.03816682456419378 -19.735043002772446 -0.04824474776668648 0.0442159383437481 0.045842835194995483 0.023771638135581905 0.028236252587455452 -0.007538579389984407 0.036892135560102145 0.003145554938306142 24.068118521538718 -0.03225775479708006 0.014173026247613315 28.846993324174534 0.02646488163707264 -0.0025007309403859254 28.856126128672447 -0.03914137452850185 -0.04334225573308528 8.530111662277609 1.9200918304739103 10.013102966509956 -63.831132626525935 21.18700675048011 -29.186847122086625 -51.7740915844832 1.0749909248390912 -78.11287793802224 -12.204495999481113 -4.919735263158283 4.029904875134964 -0.48145473024204477 0.11453890238458206 -8.130166717964002 0.021609652191007297 0.0218204964359635 44.57357167537574 0.03129896079138886 0.017317773318842666 44.5885005116508 12.461426753844847 -0.04556249219403929 0.028585317632447982 0.011407273905661265 -0.016120308470145173 -0.02964426543954919 0.007417804628418196 -0.021130679282397407 0.014756223017902017 11.058552446293675 -0.04973178068664003 -0.035626803339610304 -0.029781576705030163 0.0172783835743543 -0.01793678245630824 -0.023840780848488452 0.01994325551254286 -0.022908268927678676 4.7604053486783675 0.02156457179304368 0.015295488947567498 0.018056841009069305 -0.038660141114562695 0.03155661460956977 -0.03540955637506168 0.02278188984694093 0.009721005144882014 -5.563425265130666 -0.00305989020593153 0.041370357559676524 -6.702122660367494 0.02861002025964544 0.017108093359931742 -6.702089450114968 -0.013074498611189873 0.03105347602348745 0.01582610326447726 0.022259356282658214 0.00036404120637546935 8.060697026126668 3.537444994048947 -19.185982152229762 -0.039334341147725056 10.345365980411264 0.011554193061148566 -5.615472055873592 -15.67032316787709 3.1482512965248106 -0.008020152541301034 0.03202976934296416 -0.024655988746454742 0.03640756954766046 4.701104239012048 -0.03248977297518391 12.502265525524278 -8.20767054716103 6.838276382038064 -0.015418151201592269 46.396617909366306 0.03451277737573733 -4.330585256174438 -14.707262420165142 -3.7989049709104523 -0.014771589173700183 0.023705444865505545 -0.02819181965306474 0.03962592043016667 -10.704197506335532 0.0007659791530650031 
